<?xml version="1.0" standalone="no"?>
<!DOCTYPE svg PUBLIC "-//W3C//DTD SVG 20010904//EN"
 "http://www.w3.org/TR/2001/REC-SVG-20010904/DTD/svg10.dtd">
<svg version="1.0" xmlns="http://www.w3.org/2000/svg"
 width="700.000000pt" height="700.000000pt" viewBox="0 0 700.000000 700.000000"
 preserveAspectRatio="xMidYMid meet">
<metadata>
Created by potrace 1.11, written by Peter Selinger 2001-2013
</metadata>
<g transform="translate(0.000000,700.000000) scale(0.100000,-0.100000)"
fill="#000000" stroke="none">
<path d="M3350 6761 c-181 -49 -319 -161 -400 -325 l-25 -51 -150 -41 c-137
-37 -371 -112 -420 -134 -11 -5 -175 -70 -364 -146 l-345 -137 -66 22 c-160
51 -323 11 -437 -108 -156 -161 -151 -426 11 -580 20 -19 36 -40 36 -45 0 -13
-155 -412 -170 -438 -6 -10 -10 -23 -10 -30 0 -7 -6 -24 -13 -38 -7 -14 -21
-47 -31 -75 -10 -27 -24 -63 -32 -80 -7 -16 -50 -124 -94 -240 -45 -115 -85
-219 -90 -230 -5 -11 -56 -139 -113 -285 -57 -146 -134 -342 -171 -436 l-68
-171 -90 1 -89 1 5 -80 c8 -108 12 -132 37 -233 50 -197 160 -390 307 -540
158 -161 304 -251 509 -315 133 -42 233 -56 388 -52 184 4 272 21 428 80 270
102 512 325 646 592 32 64 93 223 86 223 -3 0 0 12 6 27 13 35 35 194 34 253
l0 45 -82 -2 -82 -1 -30 71 c-16 40 -93 234 -171 432 -78 198 -148 374 -155
390 -7 17 -112 279 -232 582 l-219 553 42 41 c60 59 101 141 115 230 15 97 16
98 36 105 10 4 135 53 278 110 143 57 328 125 410 153 152 50 345 105 348 99
1 -2 18 -34 37 -73 48 -98 160 -210 257 -256 l72 -34 1 -147 c1 -167 1 -233 1
-381 l-1 -104 -60 2 -60 3 0 -988 c0 -781 -3 -989 -12 -992 -7 -3 -39 -4 -70
-3 l-58 2 0 -482 0 -483 -32 -6 c-18 -3 -44 -8 -58 -11 -194 -37 -478 -156
-643 -267 -124 -84 -273 -231 -322 -319 -76 -134 -110 -240 -114 -356 -1 -22
-4 -23 -106 -23 l-105 0 0 -203 0 -204 -200 1 -200 1 -1 -25 c-4 -121 -3 -374
2 -381 5 -9 4483 -14 4497 -5 6 3 8 324 3 396 -1 14 -28 16 -201 15 l-200 -1
0 203 0 203 -105 0 c-93 0 -105 2 -106 18 -9 323 -270 633 -689 818 -145 63
-389 138 -467 143 -10 1 -13 105 -13 485 l0 484 -60 -1 c-32 -1 -62 2 -65 5
-4 3 -7 449 -8 989 l-2 984 -57 0 c-31 0 -59 3 -63 7 -6 6 -9 619 -3 622 171
72 275 176 365 364 3 7 271 -71 398 -115 141 -49 646 -250 657 -261 3 -4 9
-32 13 -62 12 -107 48 -183 126 -266 l29 -30 -31 -75 c-17 -41 -43 -108 -59
-149 -41 -108 -348 -891 -359 -915 -5 -11 -51 -126 -101 -255 -50 -129 -127
-326 -171 -437 l-80 -201 -77 0 c-42 0 -83 0 -90 -1 -22 -2 -6 -155 33 -330
10 -43 65 -179 97 -238 138 -259 360 -458 629 -566 157 -63 295 -87 474 -83
142 4 160 6 250 26 359 79 676 327 839 656 72 148 125 355 122 484 l-1 55 -87
-1 -87 -1 -62 156 c-34 86 -67 170 -74 186 -7 17 -86 215 -175 440 -275 696
-340 859 -350 880 -20 46 -140 356 -140 362 0 5 12 16 28 26 66 45 131 177
139 284 22 291 -259 510 -540 423 l-57 -18 -203 80 c-111 43 -216 86 -234 94
-169 77 -547 204 -767 257 l-88 22 -35 65 c-44 81 -108 157 -172 204 -53 39
-149 89 -196 101 -16 5 -37 10 -45 12 -48 14 -220 10 -280 -6z m-1821 -1652
c21 -49 29 -69 129 -324 50 -126 133 -338 185 -470 52 -132 147 -373 211 -535
64 -162 120 -304 125 -315 35 -78 101 -258 96 -263 -10 -11 -1655 -8 -1655 3
0 8 109 295 145 380 7 17 27 68 45 115 18 47 50 128 70 180 21 52 52 133 70
180 18 47 38 99 45 115 7 17 93 237 191 490 98 253 181 465 185 470 4 6 38 9
75 9 67 -2 68 -2 83 -35z m4093 20 c8 -14 172 -430 302 -764 37 -93 71 -179
76 -190 5 -11 57 -141 115 -290 59 -148 142 -360 186 -471 43 -110 79 -205 79
-210 0 -10 -1645 -12 -1655 -2 -6 5 -3 12 350 918 125 322 259 666 297 765 39
99 78 198 88 221 l19 41 67 -2 c46 -2 71 -7 76 -16z"/>
</g>
</svg>
